<svg width="250" height="70" viewBox="0 0 250 70" fill="none" xmlns="http://www.w3.org/2000/svg">
<rect x="1" y="1" width="248" height="68" rx="9" stroke="white" stroke-width="2"/>
<path d="M56.2477 34.191C56.1954 28.7629 61.0044 26.1221 61.2243 25.9991C58.5008 22.2889 54.2794 21.7819 52.796 21.7415C49.2505 21.3929 45.8114 23.7238 44.0054 23.7238C42.1632 23.7238 39.382 21.7752 36.3845 21.8324C32.5273 21.888 28.9187 23.9747 26.9396 27.2151C22.8552 33.8222 25.9014 43.5315 29.8146 48.872C31.772 51.4893 34.0594 54.408 37.0532 54.3052C39.9823 54.1941 41.0763 52.5621 44.611 52.5621C48.1132 52.5621 49.1406 54.3052 52.1939 54.2395C55.3374 54.1941 57.3165 51.6122 59.2055 48.9731C61.4676 45.9769 62.3761 43.0229 62.4121 42.8713C62.34 42.8477 56.309 40.6953 56.2477 34.191ZM50.4798 18.2283C52.0552 16.3875 53.133 13.8831 52.8338 11.3417C50.5537 11.436 47.7022 12.8153 46.0602 14.6157C44.6074 16.2022 43.3096 18.8026 43.6449 21.248C46.2062 21.4266 48.836 20.0405 50.4798 18.2283Z" fill="white"/>
<path d="M107.522 51.9989H103.627L101.494 45.4677H94.077L92.0445 51.9989H88.2523L95.6018 29.7638H100.14L107.522 51.9989ZM100.85 42.7276L98.9207 36.9215C98.7166 36.3284 98.3324 34.9316 97.7698 32.7328H97.7012C97.4748 33.6785 97.1129 35.0753 96.6172 36.9215L94.7202 42.7276H100.85ZM126.386 43.7852C126.386 46.5119 125.626 48.6673 124.105 50.2495C122.743 51.658 121.05 52.3614 119.031 52.3614C116.851 52.3614 115.284 51.6046 114.332 50.0875V58.5H110.675V41.2355C110.675 39.523 110.629 37.7669 110.539 35.9658H113.755L113.959 38.5071H114.028C115.248 36.5924 117.098 35.635 119.582 35.635C121.523 35.635 123.144 36.3818 124.441 37.8772C125.736 39.3759 126.386 41.3441 126.386 43.7852ZM122.661 43.9155C122.661 42.355 122.3 41.0685 121.577 40.0543C120.786 39 119.724 38.472 118.393 38.472C117.491 38.472 116.671 38.7661 115.939 39.3459C115.205 39.9306 114.724 40.6942 114.5 41.6399C114.399 41.9935 114.342 42.3575 114.33 42.7242V45.3992C114.33 46.5637 114.697 47.5478 115.431 48.3532C116.165 49.1552 117.119 49.5578 118.292 49.5578C119.669 49.5578 120.741 49.0382 121.508 48.0073C122.276 46.9731 122.661 45.6097 122.661 43.9155ZM145.316 43.7852C145.316 46.5119 144.557 48.6673 143.035 50.2495C141.672 51.658 139.981 52.3614 137.96 52.3614C135.78 52.3614 134.212 51.6046 133.26 50.0875V58.5H129.604V41.2355C129.604 39.523 129.557 37.7669 129.468 35.9658H132.684L132.888 38.5071H132.957C134.175 36.5924 136.025 35.635 138.511 35.635C140.451 35.635 142.071 36.3818 143.371 37.8772C144.665 39.3759 145.316 41.3441 145.316 43.7852ZM141.589 43.9155C141.589 42.355 141.227 41.0685 140.504 40.0543C139.713 39 138.655 38.472 137.324 38.472C136.422 38.472 135.602 38.7661 134.866 39.3459C134.132 39.9306 133.653 40.6942 133.429 41.6399C133.317 42.081 133.257 42.4402 133.257 42.7242V45.3992C133.257 46.5637 133.626 47.5478 134.356 48.3532C135.091 49.1535 136.044 49.5578 137.221 49.5578C138.6 49.5578 139.672 49.0382 140.437 48.0073C141.205 46.9731 141.589 45.6097 141.589 43.9155ZM166.482 45.7618C166.482 47.6548 165.803 49.1936 164.453 50.3815C162.967 51.6781 160.894 52.328 158.235 52.328C155.779 52.328 153.81 51.8669 152.325 50.9429L153.17 47.9739C154.774 48.8995 156.535 49.3607 158.453 49.3607C159.832 49.3607 160.904 49.0566 161.669 48.4534C162.436 47.8486 162.823 47.0399 162.823 46.0308C162.823 45.1268 162.503 44.37 161.873 43.7534C161.24 43.1386 160.194 42.5655 158.724 42.0392C154.728 40.5873 152.728 38.4637 152.728 35.6701C152.728 33.8456 153.434 32.3518 154.844 31.184C156.254 30.0177 158.124 29.4346 160.45 29.4346C162.527 29.4346 164.257 29.7872 165.631 30.4906L164.714 33.3944C163.42 32.7127 161.961 32.3719 160.328 32.3719C159.038 32.3719 158.026 32.681 157.302 33.2959C156.693 33.8455 156.385 34.5155 156.385 35.3109C156.385 36.188 156.736 36.9165 157.436 37.4879C158.043 38.0142 159.151 38.5873 160.753 39.2022C162.719 39.9741 164.163 40.873 165.087 41.9055C166.019 42.9381 166.482 44.2263 166.482 45.7618ZM178.603 38.6391H174.572V46.4234C174.572 48.4033 175.282 49.3908 176.706 49.3908C177.36 49.3908 177.902 49.3373 178.33 49.2253L178.432 51.9304C177.711 52.1927 176.763 52.3247 175.588 52.3247C174.144 52.3247 173.015 51.8953 172.2 51.0365C171.389 50.1777 170.981 48.7391 170.981 46.7141V38.6324H168.58V35.9591H170.981V33.0235L174.572 31.9676V35.9591H178.603V38.6391ZM196.753 43.8504C196.753 46.3148 196.029 48.3381 194.585 49.9204C193.074 51.5494 191.064 52.3614 188.558 52.3614C186.14 52.3614 184.217 51.5812 182.783 50.0223C181.349 48.4601 180.632 46.4919 180.632 44.1177C180.632 41.6332 181.373 39.5981 182.85 38.0159C184.33 36.432 186.323 35.64 188.829 35.64C191.244 35.64 193.184 36.4219 194.652 37.9825C196.055 39.4962 196.753 41.4511 196.753 43.8504ZM192.963 43.9322C192.963 42.4636 192.637 41.2038 191.983 40.1495C191.217 38.8764 190.119 38.2398 188.697 38.2398C187.232 38.2398 186.109 38.8764 185.344 40.1495C184.689 41.2038 184.363 42.4853 184.363 43.9991C184.363 45.4694 184.689 46.7325 185.344 47.7834C186.134 49.0566 187.237 49.6932 188.666 49.6932C190.064 49.6932 191.16 49.0432 191.952 47.7517C192.625 46.6723 192.963 45.4042 192.963 43.9322ZM208.645 39.0986C208.264 39.0317 207.878 38.9987 207.492 39C206.206 39 205.211 39.4712 204.511 40.4202C203.904 41.2556 203.598 42.3115 203.598 43.5864V51.9989H199.942V41.015C199.945 39.3319 199.909 37.649 199.835 35.9675H203.02L203.154 39.0351H203.255C203.643 37.9808 204.25 37.1304 205.084 36.4938C205.847 35.9375 206.774 35.6363 207.727 35.635C208.065 35.635 208.37 35.6584 208.641 35.7001L208.645 39.0986ZM224.999 43.2238C225.008 43.7653 224.963 44.3064 224.865 44.8395H213.895C213.936 46.4234 214.468 47.6364 215.486 48.4718C216.411 49.217 217.606 49.5912 219.075 49.5912C220.699 49.5912 222.181 49.3406 223.513 48.8344L224.086 51.3055C222.529 51.9671 220.69 52.2963 218.569 52.2963C216.016 52.2963 214.013 51.5645 212.555 50.1042C211.101 48.6422 210.372 46.6774 210.372 44.2163C210.372 41.8003 211.049 39.7869 212.406 38.1813C213.826 36.467 215.745 35.6099 218.16 35.6099C220.532 35.6099 222.328 36.467 223.548 38.1813C224.513 39.5397 224.999 41.2238 224.999 43.2238ZM221.512 42.2998C221.538 41.2422 221.297 40.3316 220.802 39.5614C220.169 38.5689 219.195 38.0744 217.889 38.0744C216.694 38.0744 215.72 38.5572 214.979 39.5263C214.37 40.2965 214.008 41.2222 213.896 42.2965L221.512 42.2998Z" fill="white"/>
<path d="M93.2812 21.7936C92.334 21.7936 91.5145 21.7464 90.8324 21.6667V11.1934C91.7864 11.0433 92.7504 10.9693 93.7157 10.9721C97.6214 10.9721 99.4201 12.9303 99.4201 16.1224C99.4201 19.8045 97.2955 21.7936 93.2812 21.7936ZM93.8531 12.315C93.326 12.315 92.8771 12.3475 92.5049 12.4257V20.3872C92.7062 20.4198 93.0928 20.4344 93.6359 20.4344C96.1949 20.4344 97.6518 18.9499 97.6518 16.1696C97.6518 13.6905 96.3339 12.315 93.8531 12.315ZM105.025 21.8734C102.824 21.8734 101.398 20.1984 101.398 17.9244C101.398 15.5543 102.855 13.8647 105.15 13.8647C107.319 13.8647 108.778 15.4599 108.778 17.799C108.778 20.1984 107.275 21.8734 105.025 21.8734ZM105.089 15.1115C103.88 15.1115 103.105 16.264 103.105 17.8755C103.105 19.4561 103.896 20.6086 105.073 20.6086C106.251 20.6086 107.041 19.3764 107.041 17.843C107.041 16.2803 106.267 15.1115 105.089 15.1115ZM121.33 14.0225L118.974 21.6992H117.439L116.463 18.3655C116.22 17.5501 116.018 16.7226 115.857 15.8864H115.826C115.703 16.7231 115.469 17.5614 115.222 18.3655L114.183 21.6992H112.632L110.415 14.0225H112.135L112.989 17.6721C113.19 18.5413 113.359 19.3617 113.5 20.1366H113.532C113.655 19.4903 113.856 18.6829 114.151 17.6883L115.222 14.0242H116.586L117.61 17.6102C117.857 18.4795 118.059 19.3324 118.215 20.1382H118.26C118.369 19.3487 118.54 18.5104 118.771 17.6102L119.686 14.0242L121.33 14.0225ZM130.004 21.6992H128.33V17.2912C128.33 15.9336 127.819 15.2532 126.811 15.2532C125.819 15.2532 125.137 16.1224 125.137 17.1333V21.6992H123.463V16.2168C123.463 15.538 123.447 14.8104 123.4 14.0209H124.873L124.952 15.206H124.998C125.448 14.3855 126.362 13.8647 127.386 13.8647C128.967 13.8647 130.006 15.0969 130.006 17.1023L130.004 21.6992ZM134.621 21.6992H132.945V10.5H134.621V21.6992ZM140.724 21.8734C138.525 21.8734 137.097 20.1984 137.097 17.9244C137.097 15.5543 138.553 13.8647 140.847 13.8647C143.018 13.8647 144.475 15.4599 144.475 17.799C144.477 20.1984 142.972 21.8734 140.724 21.8734ZM140.787 15.1115C139.577 15.1115 138.803 16.264 138.803 17.8755C138.803 19.4561 139.595 20.6086 140.769 20.6086C141.948 20.6086 142.737 19.3764 142.737 17.843C142.739 16.2803 141.966 15.1115 140.787 15.1115ZM151.076 21.6992L150.954 20.8153H150.909C150.398 21.5267 149.652 21.8734 148.707 21.8734C147.357 21.8734 146.398 20.9098 146.398 19.614C146.398 17.7193 148.01 16.7393 150.801 16.7393V16.5977C150.801 15.5869 150.275 15.0806 149.237 15.0806C148.494 15.0806 147.842 15.2711 147.269 15.6503L146.929 14.5288C147.625 14.086 148.494 13.8647 149.515 13.8647C151.483 13.8647 152.477 14.9227 152.477 17.0405V19.868C152.477 20.6428 152.51 21.2435 152.585 21.7009L151.076 21.6992ZM150.846 17.8755C148.986 17.8755 148.053 18.3346 148.053 19.4236C148.053 20.2293 148.534 20.6233 149.202 20.6233C150.053 20.6233 150.846 19.9607 150.846 19.0606V17.8755ZM160.606 21.6992L160.527 20.467H160.481C160 21.3981 159.192 21.8734 158.063 21.8734C156.246 21.8734 154.901 20.2456 154.901 17.9553C154.901 15.5543 156.296 13.863 158.2 13.863C159.208 13.863 159.922 14.2097 160.325 14.9064H160.358V10.5H162.034V19.6303C162.034 20.3726 162.051 21.0676 162.096 21.6992H160.606ZM160.358 17.1821C160.358 16.1078 159.66 15.1913 158.595 15.1913C157.353 15.1913 156.595 16.3129 156.595 17.8918C156.595 19.4399 157.382 20.4995 158.561 20.4995C159.614 20.4995 160.358 19.5668 160.358 18.4616V17.1821ZM172.658 21.8734C170.459 21.8734 169.032 20.1984 169.032 17.9244C169.032 15.5543 170.489 13.8647 172.783 13.8647C174.954 13.8647 176.411 15.4599 176.411 17.799C176.412 20.1984 174.909 21.8734 172.658 21.8734ZM172.72 15.1115C171.513 15.1115 170.738 16.264 170.738 17.8755C170.738 19.4561 171.529 20.6086 172.705 20.6086C173.883 20.6086 174.673 19.3764 174.673 17.843C174.676 16.2803 173.901 15.1115 172.72 15.1115ZM185.414 21.6992H183.738V17.2912C183.738 15.9336 183.227 15.2532 182.219 15.2532C181.227 15.2532 180.546 16.1224 180.546 17.1333V21.6992H178.871V16.2168C178.871 15.538 178.855 14.8104 178.808 14.0209H180.281L180.359 15.206H180.406C180.854 14.3855 181.77 13.863 182.792 13.863C184.374 13.863 185.414 15.0953 185.414 17.1007V21.6992ZM196.677 15.302H194.835V19.0296C194.835 19.9787 195.158 20.4523 195.809 20.4523C196.105 20.4523 196.353 20.4198 196.552 20.3726L196.599 21.6683C196.274 21.7953 195.84 21.8588 195.3 21.8588C193.98 21.8588 193.191 21.1165 193.191 19.1729V15.302H192.092V14.0225H193.191V12.6161L194.835 12.1099V14.0209H196.677V15.302ZM205.539 21.6992H203.867V17.3237C203.867 15.9499 203.357 15.2548 202.348 15.2548C201.48 15.2548 200.672 15.8554 200.672 17.0714V21.6992H198.999V10.5H200.672V15.1115H200.706C201.233 14.2749 201.996 13.863 202.971 13.863C204.565 13.863 205.539 15.1262 205.539 17.1333V21.6992ZM214.619 18.2711H209.595C209.627 19.7247 210.571 20.5451 211.969 20.5451C212.712 20.5451 213.395 20.4182 213.999 20.1821L214.26 21.3672C213.547 21.683 212.708 21.8409 211.732 21.8409C209.376 21.8409 207.982 20.3237 207.982 17.9716C207.982 15.6178 209.41 13.8484 211.544 13.8484C213.469 13.8484 214.676 15.302 214.676 17.4979C214.687 17.757 214.668 18.0166 214.619 18.2711ZM213.084 17.0551C213.084 15.8701 212.498 15.0334 211.427 15.0334C210.466 15.0334 209.705 15.8864 209.597 17.0551H213.084Z" fill="white"/>
</svg>
