<svg width="250" height="70" viewBox="0 0 250 70" fill="none" xmlns="http://www.w3.org/2000/svg">
<rect x="1" y="1" width="248" height="68" rx="9" stroke="white" stroke-width="2"/>
<path d="M89.6488 17.8851C89.6488 19.2556 89.3031 20.4547 88.4388 21.3113C87.4016 22.3391 86.1916 22.853 84.6358 22.853C83.0801 22.853 81.8701 22.3391 80.8329 21.3113C79.7957 20.2834 79.2772 19.0843 79.2772 17.5425C79.2772 16.0008 79.7957 14.8016 80.8329 13.7738C81.8701 12.7459 83.0801 12.232 84.6358 12.232C85.3273 12.232 86.0187 12.4033 86.7102 12.7459C87.4016 13.0886 87.9202 13.4312 88.2659 13.9451L87.4016 14.8016C86.7102 13.9451 85.8459 13.6025 84.6358 13.6025C83.5987 13.6025 82.5615 13.9451 81.8701 14.8016C81.0058 15.4868 80.6601 16.5147 80.6601 17.7138C80.6601 18.913 81.0058 19.9408 81.8701 20.626C82.7344 21.3113 83.5987 21.8252 84.6358 21.8252C85.8459 21.8252 86.7102 21.4826 87.5745 20.626C88.0931 20.1121 88.4388 19.4269 88.4388 18.5704H84.6358V17.1999H89.6488V17.8851ZM97.6004 13.6025H92.9332V16.8573H97.2547V18.0564H92.9332V21.3113H97.6004V22.6817H91.5503V12.4033H97.6004V13.6025ZM103.305 22.6817H101.922V13.6025H98.9833V12.4033H106.243V13.6025H103.305V22.6817ZM111.256 22.6817V12.4033H112.639V22.6817H111.256ZM118.517 22.6817H117.134V13.6025H114.195V12.4033H121.282V13.6025H118.344V22.6817H118.517ZM134.938 21.3113C133.901 22.3391 132.691 22.853 131.135 22.853C129.58 22.853 128.37 22.3391 127.332 21.3113C126.295 20.2834 125.777 19.0843 125.777 17.5425C125.777 16.0008 126.295 14.8016 127.332 13.7738C128.37 12.7459 129.58 12.232 131.135 12.232C132.691 12.232 133.901 12.7459 134.938 13.7738C135.975 14.8016 136.494 16.0008 136.494 17.5425C136.494 19.0843 135.975 20.2834 134.938 21.3113ZM128.37 20.4547C129.061 21.14 130.098 21.6539 131.135 21.6539C132.173 21.6539 133.21 21.3113 133.901 20.4547C134.593 19.7695 135.111 18.7417 135.111 17.5425C135.111 16.3434 134.765 15.3155 133.901 14.6303C133.21 13.9451 132.173 13.4312 131.135 13.4312C130.098 13.4312 129.061 13.7738 128.37 14.6303C127.678 15.3155 127.16 16.3434 127.16 17.5425C127.16 18.7417 127.505 19.7695 128.37 20.4547ZM138.396 22.6817V12.4033H139.951L144.964 20.4547V12.4033H146.347V22.6817H144.964L139.606 14.2877V22.6817H138.396Z" fill="white"/>
<path d="M125.432 36.6006C121.284 36.6006 117.999 39.6841 117.999 43.9668C117.999 48.0781 121.284 51.333 125.432 51.333C129.581 51.333 132.865 48.2495 132.865 43.9668C132.865 39.5128 129.581 36.6006 125.432 36.6006ZM125.432 48.2495C123.185 48.2495 121.284 46.3651 121.284 43.7955C121.284 41.2259 123.185 39.3415 125.432 39.3415C127.679 39.3415 129.581 41.0546 129.581 43.7955C129.581 46.3651 127.679 48.2495 125.432 48.2495ZM109.356 36.6006C105.208 36.6006 101.923 39.6841 101.923 43.9668C101.923 48.0781 105.208 51.333 109.356 51.333C113.505 51.333 116.789 48.2495 116.789 43.9668C116.789 39.5128 113.505 36.6006 109.356 36.6006ZM109.356 48.2495C107.109 48.2495 105.208 46.3651 105.208 43.7955C105.208 41.2259 107.109 39.3415 109.356 39.3415C111.603 39.3415 113.505 41.0546 113.505 43.7955C113.505 46.3651 111.603 48.2495 109.356 48.2495ZM90.1687 38.8276V41.9111H97.6017C97.4288 43.6242 96.7374 44.9946 95.8731 45.8512C94.8359 46.879 93.1073 48.0782 90.1687 48.0782C85.5014 48.0782 82.0442 44.4807 82.0442 39.8554C82.0442 35.2302 85.6743 31.6327 90.1687 31.6327C92.5887 31.6327 94.4902 32.6606 95.8731 33.8597L98.1202 31.6327C96.2188 29.9197 93.7987 28.5492 90.3415 28.5492C84.1185 28.5492 78.7598 33.6884 78.7598 39.8554C78.7598 46.0225 84.1185 51.1617 90.3415 51.1617C93.7987 51.1617 96.2188 50.1338 98.2931 47.9068C100.367 45.8512 101.059 42.939 101.059 40.712C101.059 40.0267 101.059 39.3415 100.886 38.8276H90.1687ZM168.647 41.2259C167.956 39.5128 166.227 36.6006 162.424 36.6006C158.622 36.6006 155.51 39.5128 155.51 43.9668C155.51 48.0781 158.622 51.333 162.77 51.333C166.055 51.333 168.129 49.2773 168.82 48.0782L166.4 46.3651C165.536 47.5642 164.499 48.4208 162.77 48.4208C161.042 48.4208 160.004 47.7355 159.14 46.1938L168.993 42.0824L168.647 41.2259ZM158.622 43.6242C158.622 40.8833 160.869 39.3415 162.424 39.3415C163.634 39.3415 164.844 40.0267 165.19 40.8833L158.622 43.6242ZM150.497 50.6477H153.781V29.2344H150.497V50.6477ZM145.311 38.1424C144.447 37.2858 143.064 36.4293 141.335 36.4293C137.705 36.4293 134.248 39.6841 134.248 43.7955C134.248 47.9068 137.533 50.9904 141.335 50.9904C143.064 50.9904 144.447 50.1338 145.138 49.2773H145.311V50.3051C145.311 53.046 143.755 54.5878 141.335 54.5878C139.434 54.5878 138.051 53.2173 137.705 52.0182L134.94 53.2173C135.804 55.1017 137.878 57.5 141.508 57.5C145.311 57.5 148.423 55.273 148.423 49.9625V36.9432H145.311V38.1424ZM141.508 48.2495C139.261 48.2495 137.36 46.3651 137.36 43.7955C137.36 41.2259 139.261 39.3415 141.508 39.3415C143.755 39.3415 145.484 41.2259 145.484 43.7955C145.484 46.3651 143.755 48.2495 141.508 48.2495ZM183.686 29.2344H175.908V50.6477H179.192V42.5963H183.686C187.316 42.5963 190.774 40.0267 190.774 35.9154C190.774 31.804 187.316 29.2344 183.686 29.2344ZM183.859 39.5128H179.192V32.1466H183.859C186.279 32.1466 187.662 34.2023 187.662 35.7441C187.489 37.6285 186.106 39.5128 183.859 39.5128ZM203.738 36.4293C201.318 36.4293 198.898 37.4571 198.034 39.6841L200.972 40.8833C201.664 39.6841 202.701 39.3415 203.911 39.3415C205.64 39.3415 207.195 40.3694 207.368 42.0824V42.2537C206.85 41.9111 205.467 41.3972 204.084 41.3972C200.972 41.3972 197.861 43.1103 197.861 46.1938C197.861 49.106 200.454 50.9904 203.22 50.9904C205.467 50.9904 206.504 49.9625 207.368 48.9347H207.541V50.6477H210.653V42.425C210.307 38.6563 207.368 36.4293 203.738 36.4293ZM203.392 48.2495C202.355 48.2495 200.8 47.7355 200.8 46.3651C200.8 44.652 202.701 44.1381 204.257 44.1381C205.64 44.1381 206.331 44.4807 207.195 44.8233C206.85 46.879 205.121 48.2495 203.392 48.2495ZM221.543 36.9432L217.913 46.1938H217.74L213.937 36.9432H210.48L216.184 49.9625L212.9 57.1574H216.184L225 36.9432H221.543ZM192.502 50.6477H195.787V29.2344H192.502V50.6477Z" fill="white"/>
<path d="M25.6914 12.1055C25.1729 12.6195 25 13.476 25 14.5038V52.3626C25 53.3904 25.3457 54.2469 25.8643 54.7609L26.0372 54.9322L47.4719 33.6902V33.3476L25.6914 12.1055Z" fill="url(#paint0_linear_1198_29)"/>
<path d="M54.3866 40.8834L47.2993 33.8599V33.346L54.3866 26.3224L54.5594 26.4937L63.0296 31.2903C65.4497 32.6607 65.4497 34.8877 63.0296 36.2582L54.3866 40.8834Z" fill="url(#paint1_linear_1198_29)"/>
<path d="M54.5583 40.7126L47.2981 33.5178L25.6905 54.9311C26.5548 55.7876 27.7648 55.7876 29.3206 55.1024L54.5583 40.7126Z" fill="url(#paint2_linear_1198_29)"/>
<path d="M54.5583 26.3225L29.3206 12.1041C27.7648 11.2475 26.5548 11.4188 25.6905 12.2754L47.2981 33.5178L54.5583 26.3225Z" fill="url(#paint3_linear_1198_29)"/>
<path d="M54.3854 40.5415L29.3206 54.5886C27.9377 55.4452 26.7277 55.2739 25.8634 54.5886L25.6905 54.7599L25.8634 54.9312C26.7277 55.6165 27.9377 55.7878 29.3206 54.9312L54.3854 40.5415Z" fill="white"/>
<path d="M25.6914 54.5885C25.1729 54.0745 25 53.218 25 52.1902V52.3626C25 53.3904 25.3457 54.2469 25.8643 54.7609L25.8634 54.5886L25.6914 54.5885ZM63.0294 35.7448L54.3854 40.5415L54.5583 40.7126L63.0294 35.9161C64.2394 35.2308 64.758 34.3743 64.758 33.5178C64.758 34.3743 64.0665 35.0595 63.0294 35.7448Z" fill="white"/>
<path d="M29.3215 12.276L63.0296 31.2903C64.0668 31.9755 64.758 32.6612 64.758 33.5178C64.758 32.6612 64.2394 31.8049 63.0294 31.1197L29.3206 12.1041C26.9005 10.7336 25 11.7629 25 14.5038V14.6743C25 12.1047 26.9015 10.9055 29.3215 12.276Z" fill="white"/>
<defs>
<linearGradient id="paint0_linear_1198_29" x1="206.538" y1="13.7264" x2="199.256" y2="74.6168" gradientUnits="userSpaceOnUse">
<stop stop-color="#00A0FF"/>
<stop offset="0.007" stop-color="#00A1FF"/>
<stop offset="0.26" stop-color="#00BEFF"/>
<stop offset="0.512" stop-color="#00D2FF"/>
<stop offset="0.76" stop-color="#00DFFF"/>
<stop offset="1" stop-color="#00E3FF"/>
</linearGradient>
<linearGradient id="paint1_linear_1198_29" x1="240.448" y1="34.2348" x2="-236.34" y2="34.2348" gradientUnits="userSpaceOnUse">
<stop stop-color="#FFE000"/>
<stop offset="0.409" stop-color="#FFBD00"/>
<stop offset="0.775" stop-color="#FFA500"/>
<stop offset="1" stop-color="#FF9C00"/>
</linearGradient>
<linearGradient id="paint2_linear_1198_29" x1="197.778" y1="19.6946" x2="153.315" y2="168.893" gradientUnits="userSpaceOnUse">
<stop stop-color="#FF3A44"/>
<stop offset="1" stop-color="#C31162"/>
</linearGradient>
<linearGradient id="paint3_linear_1198_29" x1="-12.1617" y1="-13.583" x2="7.8647" y2="53.304" gradientUnits="userSpaceOnUse">
<stop stop-color="#32A071"/>
<stop offset="0.069" stop-color="#2DA771"/>
<stop offset="0.476" stop-color="#15CF74"/>
<stop offset="0.801" stop-color="#06E775"/>
<stop offset="1" stop-color="#00F076"/>
</linearGradient>
</defs>
</svg>
