<svg width="800" height="800" viewBox="0 0 800 800" fill="none" xmlns="http://www.w3.org/2000/svg">
<path d="M784.84 288.885C762.303 207.947 709.642 134.946 639.322 89.1309C564.806 40.5896 467.39 26.0045 380.243 24.0508C258.549 21.264 104.398 68.003 44.5279 184.048C39.5451 193.695 54.2211 201.98 59.2039 192.332C101.626 110.092 202.95 62.596 290.37 47.0265C384.408 30.3059 487.231 43.4521 576.21 76.6359C669.113 111.274 733.617 190.787 765.317 282.781C800.606 385.134 781.068 487.064 724.742 576.967C608.455 762.53 323.054 822.763 149.486 682.122C69.9724 617.693 18.1142 531.5 17.1146 428.405C16.5239 367.641 28.3677 299.79 58.7041 246.477C68.1095 229.969 80.7408 215.823 94.9927 203.055C95.2048 199.738 95.4471 196.452 95.6743 193.18C94.0234 191.075 92.6149 188.803 91.8879 185.986C91.8122 185.668 91.8273 185.426 91.7516 185.093C83.0884 192.378 74.6978 200.026 66.7615 208.25C32.0632 244.16 18.3868 293.974 8.724 341.546C-10.4805 436.054 0.92407 524.412 55.1146 604.259C101.505 672.626 173.053 736.252 253.99 758.471C351.224 785.157 452.744 782.9 544.753 741.69C586.388 723.061 631.522 704.765 666.508 674.686C709.415 637.761 741.645 585.615 767.665 536.014C807.331 460.407 807.3 369.504 784.84 288.885Z" fill="white"/>
<path d="M241.621 490.601C243.181 508.018 239.765 535.155 258 543.001C260.5 543.501 263.5 544.001 267.5 543.501C270 542.001 275 542.501 283 539.5C319.5 533 314.5 533.001 317.5 531C319.5 527.501 307 434.001 307 412.132C304.5 368.501 338.5 257.236 335.5 253.001C327 241.001 322.5 244.001 293.585 247.501C276.98 247.5 281.302 247.728 271.927 247.5C235.986 224.404 241.318 331.179 241.136 340.676C240.151 390.413 237.198 440.984 241.621 490.601ZM249.98 464C250.935 460.244 248.375 459.786 249.98 456C273.956 450.381 253.566 419.69 276.98 412.132C288.4 408.997 269.641 419.817 281 416.5C245.62 433.084 286.754 449.536 249.98 464Z" fill="white"/>
<path d="M454.485 490.101C456.045 507.518 449.265 525.155 467.5 533C470 533.5 477 537.5 480.5 539C484 540 487.864 542.001 495.864 539C532.364 532.5 527.364 532.501 530.364 530.5C532.364 527.001 532 430.369 532 408.501C529.5 364.869 545 257.236 542 253.001C533.5 241.001 535.364 243.501 506.449 247.001C489.845 247 494.166 247.228 484.791 247C454.485 253 462.182 342.004 462 351.5C461.016 401.238 450.062 440.484 454.485 490.101ZM518.5 467.501C519.454 463.744 509.395 468.787 511 465.001C504.5 444.501 489.085 305.558 512.5 298.001C523.92 294.865 510.141 306.317 521.5 303.001C486.12 319.585 512.5 456 518.5 467.501Z" fill="white"/>
</svg>
