<svg width="800" height="800" viewBox="0 0 800 800" fill="none" xmlns="http://www.w3.org/2000/svg">
<path d="M784.84 288.885C762.303 207.947 709.642 134.946 639.322 89.1309C564.806 40.5896 467.39 26.0045 380.243 24.0508C258.549 21.264 104.398 68.003 44.5279 184.048C39.5451 193.695 54.2211 201.98 59.2039 192.332C101.626 110.092 202.95 62.596 290.37 47.0265C384.408 30.3059 487.231 43.4521 576.21 76.6359C669.113 111.274 733.618 190.787 765.317 282.781C800.606 385.134 781.068 487.064 724.742 576.967C608.455 762.53 323.054 822.763 149.486 682.122C69.9724 617.693 18.1142 531.5 17.1146 428.405C16.5239 367.641 28.3677 299.79 58.7041 246.477C68.1095 229.969 80.7408 215.823 94.9927 203.055C95.2048 199.738 95.4471 196.452 95.6743 193.18C94.0234 191.075 92.6149 188.803 91.8879 185.986C91.8122 185.668 91.8273 185.426 91.7516 185.093C83.0884 192.378 74.6978 200.026 66.7615 208.25C32.0632 244.16 18.3868 293.974 8.724 341.546C-10.4805 436.054 0.924068 524.412 55.1146 604.259C101.505 672.626 173.053 736.252 253.99 758.471C351.224 785.157 452.744 782.9 544.753 741.69C586.388 723.061 631.522 704.765 666.508 674.686C709.415 637.761 741.645 585.615 767.665 536.014C807.331 460.408 807.3 369.504 784.84 288.885Z" fill="white"/>
<path d="M268.621 482.383C270.181 499.801 270.453 529.032 288.688 536.877C289.461 537.876 290.279 538.8 291.218 539.512C309.362 553.173 334.655 531.879 349.922 522.716C392.283 497.362 540.543 400.992 562.549 367.066C564.836 363.522 564.033 360.174 561.852 357.842C561.701 355.419 560.626 353.026 557.945 351.36C533.379 336.335 423.604 286.28 393.01 274.951C377.199 269.059 308.302 239.51 298.927 239.283C262.986 216.186 268.318 322.962 268.136 332.458C267.151 382.196 264.198 432.767 268.621 482.383ZM317.45 379.137C316.117 379.727 314.996 380.681 314.163 381.893C314.102 377.365 314.027 372.866 313.996 368.398C315.45 369.231 316.98 369.974 318.51 370.731C318.192 373.487 317.813 376.304 317.45 379.137ZM320.585 449.745C321.539 445.989 322.872 442.202 324.477 438.416C348.452 432.797 371.246 421.059 394.661 413.502C406.081 410.367 417.516 407.231 428.875 403.915C393.495 420.499 357.358 435.281 320.585 449.745ZM372.382 390.178C369.656 391.42 366.9 392.631 364.219 393.964C361.826 392.48 359.387 391.329 356.904 390.269C362.053 390.117 367.218 390.056 372.382 390.178ZM365.128 367.808C365.476 367.596 365.855 367.429 366.248 367.247C375.972 369.322 385.695 370.746 395.691 370.882C402.643 371.715 409.595 372.594 416.562 373.396C415.895 373.639 415.229 373.836 414.547 374.078C399.856 372.548 382.121 370.882 365.128 367.808ZM437.311 349.951C425.785 345.862 414.244 341.636 402.613 337.017C383.454 329.414 364.37 324.007 344.363 319.297C338.108 317.843 332.959 315.359 328.43 312.254C366.142 318.176 402.431 332.761 437.311 349.951ZM346.771 337.108C335.412 336.017 323.917 335.487 312.27 335.518C311.876 331.019 311.422 326.551 310.983 322.053C322.311 329.944 334.11 333.912 346.771 337.108Z" fill="white"/>
</svg>
