<svg width="30" height="30" viewBox="0 0 30 30" fill="none" xmlns="http://www.w3.org/2000/svg">
<path fill-rule="evenodd" clip-rule="evenodd" d="M15 3.75C8.7868 3.75 3.75 8.78679 3.75 15C3.75 21.2132 8.7868 26.25 15 26.25C21.2132 26.25 26.25 21.2132 26.25 15C26.25 8.78679 21.2132 3.75 15 3.75ZM1.25 15C1.25 7.40608 7.40609 1.25 15 1.25C22.5939 1.25 28.75 7.40608 28.75 15C28.75 22.5939 22.5939 28.75 15 28.75C7.40608 28.75 1.25 22.5939 1.25 15Z" fill="white"/>
<path fill-rule="evenodd" clip-rule="evenodd" d="M13.0862 6.5741C12.3521 8.67149 11.875 11.6504 11.875 15C11.875 18.3496 12.3521 21.3285 13.0862 23.4259C13.4553 24.4804 13.866 25.2446 14.2601 25.7208C14.6607 26.2049 14.9171 26.25 15 26.25C15.0829 26.25 15.3393 26.2049 15.7399 25.7208C16.134 25.2446 16.5447 24.4804 16.9138 23.4259C17.6479 21.3285 18.125 18.3496 18.125 15C18.125 11.6504 17.6479 8.67149 16.9138 6.5741C16.5447 5.51964 16.134 4.7554 15.7399 4.27922C15.3393 3.79508 15.0829 3.75 15 3.75C14.9171 3.75 14.6607 3.79508 14.2601 4.27922C13.866 4.7554 13.4553 5.51964 13.0862 6.5741ZM12.334 2.6854C12.9802 1.90447 13.8748 1.25 15 1.25C16.1252 1.25 17.0198 1.90447 17.666 2.6854C18.3188 3.47429 18.8508 4.54064 19.2734 5.74822C20.1228 8.17495 20.625 11.446 20.625 15C20.625 18.554 20.1228 21.825 19.2734 24.2518C18.8508 25.4594 18.3188 26.5257 17.666 27.3146C17.0198 28.0955 16.1252 28.75 15 28.75C13.8748 28.75 12.9802 28.0955 12.334 27.3146C11.6812 26.5257 11.1492 25.4594 10.7266 24.2518C9.87723 21.825 9.375 18.554 9.375 15C9.375 11.446 9.87723 8.17495 10.7266 5.74822C11.1492 4.54064 11.6812 3.47429 12.334 2.6854Z" fill="white"/>
<path fill-rule="evenodd" clip-rule="evenodd" d="M27.5 16.25H2.5V13.75H27.5V16.25Z" fill="white"/>
</svg>
